<svg width="778" height="778" viewBox="0 0 778 778" fill="none" xmlns="http://www.w3.org/2000/svg">
<g clip-path="url(#clip0_1910_939)">
<path d="M389 778C603.839 778 778 603.839 778 389C778 174.161 603.839 0 389 0C174.161 0 0 174.161 0 389C0 603.839 174.161 778 389 778Z" fill="#47B88A"/>
<path d="M653.52 199.138C428.211 160.549 363.584 311.689 359.436 392.081C431.759 267.906 562.718 233.482 589.649 225.842C592.114 224.53 593.763 223.877 594.392 224.034C595.158 224.225 593.427 224.77 589.649 225.842C572.608 234.907 516.48 275.417 487.028 297.166C366.282 377.51 346.468 529.812 351.656 595.917H392.112C385.888 483.885 408.192 441.356 420.12 434.093C519.704 440.317 563.272 364.073 583.5 306.502C599.682 260.444 636.924 215.735 653.52 199.138Z" fill="white"/>
<path d="M348.544 392.081C341.8 334.509 288.171 232.125 127.592 283.162C139.003 288.349 167.426 310.236 189.832 356.293C203.317 387.933 251.138 444.985 334.54 420.089C303.939 384.301 234.645 310.236 202.28 300.278C231.844 303.909 302.486 327.351 348.544 392.081Z" fill="white"/>
</g>
<defs>
<clipPath id="clip0_1910_939">
<rect width="778" height="778" fill="white"/>
</clipPath>
</defs>
</svg>
