<svg width="107" height="146" viewBox="0 0 107 146" fill="none" xmlns="http://www.w3.org/2000/svg">
<circle cx="7" cy="7" r="7" fill="#D9D9D9"/>
<circle cx="38" cy="7" r="7" fill="#D9D9D9"/>
<circle cx="69" cy="7" r="7" fill="#D9D9D9"/>
<circle cx="100" cy="7" r="7" fill="#D9D9D9"/>
<circle cx="7" cy="29" r="7" fill="#D9D9D9"/>
<circle cx="7" cy="51" r="7" fill="#D9D9D9"/>
<circle cx="7" cy="73" r="7" fill="#D9D9D9"/>
<circle cx="7" cy="95" r="7" fill="#D9D9D9"/>
<circle cx="7" cy="117" r="7" fill="#D9D9D9"/>
<circle cx="7" cy="139" r="7" fill="#D9D9D9"/>
<circle cx="38" cy="29" r="7" fill="#D9D9D9"/>
<circle cx="38" cy="51" r="7" fill="#D9D9D9"/>
<circle cx="38" cy="73" r="7" fill="#D9D9D9"/>
<circle cx="38" cy="95" r="7" fill="#D9D9D9"/>
<circle cx="38" cy="117" r="7" fill="#D9D9D9"/>
<circle cx="38" cy="139" r="7" fill="#D9D9D9"/>
<circle cx="69" cy="29" r="7" fill="#D9D9D9"/>
<circle cx="69" cy="51" r="7" fill="#D9D9D9"/>
<circle cx="69" cy="73" r="7" fill="#D9D9D9"/>
<circle cx="69" cy="95" r="7" fill="#D9D9D9"/>
<circle cx="69" cy="117" r="7" fill="#D9D9D9"/>
<circle cx="69" cy="139" r="7" fill="#D9D9D9"/>
<circle cx="100" cy="29" r="7" fill="#D9D9D9"/>
<circle cx="100" cy="51" r="7" fill="#D9D9D9"/>
<circle cx="100" cy="73" r="7" fill="#D9D9D9"/>
<circle cx="100" cy="95" r="7" fill="#D9D9D9"/>
<circle cx="100" cy="117" r="7" fill="#D9D9D9"/>
<circle cx="100" cy="139" r="7" fill="#D9D9D9"/>
</svg>
