<svg width="73" height="56" viewBox="0 0 73 56" fill="none" xmlns="http://www.w3.org/2000/svg">
<path d="M73 0.860741C41.7266 -4.50182 32.7564 16.5015 32.1805 27.6736C42.2189 10.4173 60.3965 5.63345 64.1346 4.57171C64.4769 4.38939 64.7055 4.29859 64.7929 4.32046C64.8992 4.34707 64.659 4.42276 64.1346 4.57171C61.7692 5.83151 53.9784 11.4611 49.8905 14.4834C33.1308 25.6485 30.3807 46.8133 31.1006 56H36.716C35.8521 40.4313 38.9477 34.5209 40.6035 33.5118C54.426 34.3768 60.4734 23.7814 63.2811 15.7808C65.5272 9.3803 70.6963 3.16722 73 0.860741Z" fill="white"/>
<path d="M30.6686 27.6736C29.7327 19.673 22.2888 5.44487 0 12.5373C1.58383 13.2581 5.529 16.2997 8.63906 22.7002C10.5108 27.0969 17.1485 35.0255 28.7249 31.5657C24.4773 26.5924 14.8592 16.2997 10.3669 14.9158C14.4704 15.4204 24.2757 18.6783 30.6686 27.6736Z" fill="white"/>
</svg>
